<svg width="69" height="25" viewBox="0 0 69 25" fill="none" xmlns="http://www.w3.org/2000/svg">
<path d="M5.90909 24.3295C4.79545 24.3295 3.80303 24.1364 2.93182 23.75C2.06061 23.3561 1.37121 22.7765 0.863636 22.0114C0.363636 21.2386 0.113636 20.2765 0.113636 19.125C0.113636 18.1553 0.291667 17.3409 0.647727 16.6818C1.00379 16.0227 1.48864 15.4924 2.10227 15.0909C2.71591 14.6894 3.41288 14.3864 4.19318 14.1818C4.98106 13.9773 5.80682 13.8333 6.67045 13.75C7.68561 13.6439 8.50379 13.5455 9.125 13.4545C9.74621 13.3561 10.197 13.2121 10.4773 13.0227C10.7576 12.8333 10.8977 12.553 10.8977 12.1818V12.1136C10.8977 11.3939 10.6705 10.8371 10.2159 10.4432C9.76894 10.0492 9.13258 9.85227 8.30682 9.85227C7.43561 9.85227 6.74242 10.0455 6.22727 10.4318C5.71212 10.8106 5.37121 11.2879 5.20455 11.8636L0.727273 11.5C0.954546 10.4394 1.40152 9.52273 2.06818 8.75C2.73485 7.9697 3.5947 7.37121 4.64773 6.95454C5.70833 6.5303 6.93561 6.31818 8.32955 6.31818C9.29924 6.31818 10.2273 6.43182 11.1136 6.65909C12.0076 6.88636 12.7992 7.23864 13.4886 7.71591C14.1856 8.19318 14.7348 8.80682 15.1364 9.55682C15.5379 10.2992 15.7386 11.1894 15.7386 12.2273V24H11.1477V21.5795H11.0114C10.7311 22.125 10.3561 22.6061 9.88636 23.0227C9.41667 23.4318 8.85227 23.7538 8.19318 23.9886C7.53409 24.2159 6.77273 24.3295 5.90909 24.3295ZM7.29545 20.9886C8.00758 20.9886 8.63636 20.8485 9.18182 20.5682C9.72727 20.2803 10.1553 19.8939 10.4659 19.4091C10.7765 18.9242 10.9318 18.375 10.9318 17.7614V15.9091C10.7803 16.0076 10.572 16.0985 10.3068 16.1818C10.0492 16.2576 9.75758 16.3295 9.43182 16.3977C9.10606 16.4583 8.7803 16.5152 8.45455 16.5682C8.12879 16.6136 7.83333 16.6553 7.56818 16.6932C7 16.7765 6.50379 16.9091 6.07955 17.0909C5.6553 17.2727 5.32576 17.5189 5.09091 17.8295C4.85606 18.1326 4.73864 18.5114 4.73864 18.9659C4.73864 19.625 4.97727 20.1288 5.45455 20.4773C5.93939 20.8182 6.55303 20.9886 7.29545 20.9886ZM22.4152 0.727272V24H17.5743V0.727272H22.4152ZM32.2594 24.3409C30.4943 24.3409 28.9678 23.9659 27.6799 23.2159C26.3996 22.4583 25.4109 21.4053 24.714 20.0568C24.017 18.7008 23.6685 17.1288 23.6685 15.3409C23.6685 13.5379 24.017 11.9621 24.714 10.6136C25.4109 9.25758 26.3996 8.20454 27.6799 7.45454C28.9678 6.69697 30.4943 6.31818 32.2594 6.31818C34.0246 6.31818 35.5473 6.69697 36.8276 7.45454C38.1155 8.20454 39.1079 9.25758 39.8049 10.6136C40.5019 11.9621 40.8503 13.5379 40.8503 15.3409C40.8503 17.1288 40.5019 18.7008 39.8049 20.0568C39.1079 21.4053 38.1155 22.4583 36.8276 23.2159C35.5473 23.9659 34.0246 24.3409 32.2594 24.3409ZM32.2822 20.5909C33.0852 20.5909 33.7556 20.3636 34.2935 19.9091C34.8314 19.447 35.2367 18.8182 35.5094 18.0227C35.7897 17.2273 35.9299 16.322 35.9299 15.3068C35.9299 14.2917 35.7897 13.3864 35.5094 12.5909C35.2367 11.7955 34.8314 11.1667 34.2935 10.7045C33.7556 10.2424 33.0852 10.0114 32.2822 10.0114C31.4716 10.0114 30.7897 10.2424 30.2367 10.7045C29.6913 11.1667 29.2784 11.7955 28.9981 12.5909C28.7253 13.3864 28.589 14.2917 28.589 15.3068C28.589 16.322 28.7253 17.2273 28.9981 18.0227C29.2784 18.8182 29.6913 19.447 30.2367 19.9091C30.7897 20.3636 31.4716 20.5909 32.2822 20.5909ZM42.0781 24V6.54545H46.7713V9.59091H46.9531C47.2713 8.50758 47.8053 7.68939 48.5553 7.13636C49.3053 6.57576 50.169 6.29545 51.1463 6.29545C51.3887 6.29545 51.65 6.31061 51.9303 6.34091C52.2106 6.37121 52.4569 6.41288 52.669 6.46591V10.7614C52.4417 10.6932 52.1273 10.6326 51.7258 10.5795C51.3243 10.5265 50.9569 10.5 50.6235 10.5C49.9114 10.5 49.275 10.6553 48.7144 10.9659C48.1614 11.2689 47.722 11.6932 47.3963 12.2386C47.0781 12.7841 46.919 13.4129 46.919 14.125V24H42.0781ZM60.3939 24.3409C58.5984 24.3409 57.053 23.9773 55.7575 23.25C54.4696 22.5152 53.4772 21.4773 52.7802 20.1364C52.0833 18.7879 51.7348 17.1932 51.7348 15.3523C51.7348 13.5568 52.0833 11.9811 52.7802 10.625C53.4772 9.26894 54.4583 8.21212 55.7234 7.45454C56.9961 6.69697 58.4886 6.31818 60.2007 6.31818C61.3522 6.31818 62.4242 6.50379 63.4166 6.875C64.4166 7.23864 65.2878 7.78788 66.0302 8.52273C66.7802 9.25758 67.3636 10.1818 67.7802 11.2955C68.1969 12.4015 68.4052 13.697 68.4052 15.1818V16.5114H53.6666V13.5114H63.8484C63.8484 12.8144 63.6969 12.197 63.3939 11.6591C63.0908 11.1212 62.6704 10.7008 62.1325 10.3977C61.6022 10.0871 60.9848 9.93182 60.2802 9.93182C59.5454 9.93182 58.8939 10.1023 58.3257 10.4432C57.7651 10.7765 57.3257 11.2273 57.0075 11.7955C56.6893 12.3561 56.5264 12.9811 56.5189 13.6705V16.5227C56.5189 17.3864 56.678 18.1326 56.9961 18.7614C57.3219 19.3902 57.7802 19.875 58.3711 20.2159C58.962 20.5568 59.6628 20.7273 60.4734 20.7273C61.0113 20.7273 61.5037 20.6515 61.9507 20.5C62.3977 20.3485 62.7802 20.1212 63.0984 19.8182C63.4166 19.5152 63.659 19.1439 63.8257 18.7045L68.303 19C68.0757 20.0758 67.6098 21.0152 66.9052 21.8182C66.2083 22.6136 65.3067 23.2348 64.2007 23.6818C63.1022 24.1212 61.8333 24.3409 60.3939 24.3409Z" fill="url(#paint0_linear_1_1715)"/>
<defs>
<linearGradient id="paint0_linear_1_1715" x1="67" y1="28" x2="-1" y2="28" gradientUnits="userSpaceOnUse">
<stop stop-color="#1EE9B6"/>
<stop offset="1" stop-color="#334BFA"/>
</linearGradient>
</defs>
</svg>
